<svg width="22" height="26" viewBox="0 0 22 26" fill="none" xmlns="http://www.w3.org/2000/svg">
<path d="M20.6485 3.65625H16.7271L17.101 1.52344H18.5156C18.9363 1.52344 19.2774 1.18239 19.2774 0.761719C19.2774 0.341047 18.9363 0 18.5156 0H16.4613C16.0913 0 15.7749 0.265789 15.711 0.630195L15.1805 3.65625H1.35158C0.930906 3.65625 0.589859 3.9973 0.589859 4.41797V8.07422C0.589859 8.49489 0.930906 8.83594 1.35158 8.83594H2.6464C2.85166 10.5199 2.99613 11.7043 3.15934 13.0421C6.44291 13.7925 6.99815 15.8438 11 15.8438C14.9943 15.8438 15.5649 13.7917 18.8407 13.0415C18.9493 12.1512 19.245 9.72694 19.3536 8.83594H20.6485C21.0691 8.83594 21.4102 8.49489 21.4102 8.07422V4.41797C21.4102 3.9973 21.0691 3.65625 20.6485 3.65625Z" fill="#F5BA3C"/>
<path d="M11 17.3673C6.84614 17.3673 5.77948 15.4402 3.35823 14.6725L4.28672 22.2837C4.28672 22.2837 4.28672 22.2838 4.28672 22.2838L4.65793 25.3306C4.70454 25.7127 5.02904 26.0001 5.41406 26.0001H16.5859C16.971 26.0001 17.2955 25.7127 17.3421 25.3306L17.4666 24.3085C17.4666 24.3085 18.6419 14.6715 18.6419 14.6714C16.2242 15.4387 15.1537 17.3673 11 17.3673ZM15.9115 24.4766H6.08859L5.90298 22.9532H16.0972C16.0283 23.5181 15.9744 23.9598 15.9115 24.4766Z" fill="#F5BA3C"/>
</svg>
