<svg width="21" height="26" viewBox="0 0 21 26" fill="none" xmlns="http://www.w3.org/2000/svg">
<path d="M11.0714 7.25205C11.5354 6.47707 12.2698 5.36792 13.1974 4.30365H13.1984C13.984 3.40038 15.5223 2.24108 15.5223 2.24108C15.7536 2.06634 15.7288 1.82297 15.4659 1.7005L13.6065 0.83155C13.3436 0.708546 12.9862 0.798291 12.812 1.03005C12.812 1.03005 11.4367 3.00286 9.81811 7.20243C4.81338 4.93873 0.0562401 8.10938 0.0562401 13.6229C0.0562401 19.3819 4.48712 28.13 10.4791 25.4894C16.7899 28.2203 20.9051 19.3825 20.9051 13.6229C20.9051 8.06187 16.6289 4.80147 11.0714 7.25205Z" fill="#F8644A"/>
</svg>
