<svg width="21" height="21" viewBox="0 0 21 21" fill="none" xmlns="http://www.w3.org/2000/svg">
<path d="M20.3148 10.7279H7.07588C6.69789 10.7279 6.39111 10.4212 6.39111 10.0432C6.39111 9.66517 6.69789 9.3584 7.07588 9.3584H20.3148C20.6928 9.3584 20.9996 9.66517 20.9996 10.0432C20.9996 10.4212 20.6928 10.7279 20.3148 10.7279Z" fill="#28B446"/>
<path d="M10.728 14.3803C10.5526 14.3803 10.3774 14.3138 10.244 14.1796L6.59197 10.5275C6.32449 10.2599 6.32449 9.8262 6.59197 9.55871L10.244 5.90667C10.5115 5.63918 10.9452 5.63918 11.2128 5.90667C11.4803 6.17416 11.4803 6.60782 11.2128 6.87531L8.0446 10.0435L11.2128 13.2118C11.4803 13.4792 11.4803 13.9129 11.2128 14.1804C11.0786 14.3138 10.9032 14.3803 10.728 14.3803Z" fill="#28B446"/>
<path d="M10.0433 20.0866C4.50583 20.0866 0 15.5808 0 10.0433C0 4.50583 4.50583 0 10.0433 0C14.1984 0 17.867 2.49984 19.3908 6.36938C19.5296 6.72079 19.3561 7.11801 19.0047 7.2576C18.6531 7.39469 18.2559 7.22383 18.1163 6.87058C16.8006 3.52883 13.6315 1.36954 10.0433 1.36954C5.26081 1.36954 1.36954 5.26098 1.36954 10.0433C1.36954 14.8257 5.26081 18.7171 10.0433 18.7171C13.6315 18.7171 16.8006 16.5578 18.1163 13.2171C18.255 12.8636 18.6522 12.693 19.0047 12.8299C19.3561 12.9686 19.5296 13.3667 19.3908 13.7183C17.867 17.5868 14.1984 20.0866 10.0433 20.0866Z" fill="#28B446"/>
</svg>
