<svg width="19" height="19" viewBox="0 0 19 19" fill="none" xmlns="http://www.w3.org/2000/svg">
<path d="M9.4962 19.0026C9.43365 19.0026 9.37031 18.9876 9.3133 18.9575L0.21397 14.2067C0.0833234 14.1386 0.000976562 14.0032 0.000976562 13.856V4.94824C0.000976562 4.81126 0.0722383 4.68378 0.188632 4.61172C0.305027 4.53967 0.451509 4.53334 0.573446 4.59431L9.67277 9.14714C9.80659 9.21444 9.89131 9.35142 9.89131 9.50107V18.6067C9.89131 18.7453 9.81926 18.8736 9.70049 18.9456C9.63873 18.9836 9.56746 19.0026 9.4962 19.0026ZM0.792773 13.616L9.1003 17.9535V9.74574L0.792773 5.5888V13.616Z" fill="#28B446"/>
<path d="M9.50894 19.0027C9.43767 19.0027 9.36641 18.9837 9.30386 18.9457C9.18588 18.8737 9.11304 18.7454 9.11304 18.6068V9.50117C9.11304 9.35152 9.19776 9.21454 9.33157 9.14724L18.4309 4.59441C18.552 4.53265 18.6993 4.53898 18.8157 4.61183C18.9329 4.68388 19.0042 4.81136 19.0042 4.94834V13.8561C19.0042 14.0033 18.9218 14.1387 18.7912 14.2068L9.69184 18.9576C9.63483 18.9877 9.57149 19.0027 9.50894 19.0027ZM9.90483 9.74584V17.9536L18.2124 13.6161V5.5889L9.90483 9.74584ZM18.6083 13.8561H18.6162H18.6083Z" fill="#28B446"/>
<path d="M0.396721 5.34423C0.251031 5.34423 0.111674 5.26426 0.0419964 5.1257C-0.0561864 4.93012 0.023785 4.69258 0.219359 4.5944L9.33136 0.0415693C9.443 -0.0138564 9.57444 -0.0138564 9.68529 0.0415693L18.7846 4.5944C18.9802 4.69258 19.0594 4.93012 18.962 5.1257C18.8638 5.32127 18.627 5.39966 18.4307 5.30306L9.50872 0.838117L0.574084 5.30227C0.517074 5.33077 0.456898 5.34423 0.396721 5.34423Z" fill="#28B446"/>
<path d="M14.2535 11.8764C14.0349 11.8764 13.8576 11.699 13.8576 11.4805V7.37028L4.97679 2.92672C4.78121 2.82933 4.70203 2.591 4.80021 2.39542C4.8984 2.19985 5.13594 2.12146 5.33151 2.21806L14.4308 6.77089C14.5647 6.83899 14.6494 6.97597 14.6494 7.12562V11.4805C14.6494 11.699 14.472 11.8764 14.2535 11.8764Z" fill="#28B446"/>
</svg>
