<svg width="15" height="20" viewBox="0 0 15 20" fill="none" xmlns="http://www.w3.org/2000/svg">
<path d="M7.24314 0C3.24925 0 0 3.24925 0 7.2431C0 12.1996 6.4819 19.476 6.75787 19.7833C7.01709 20.0721 7.46966 20.0715 7.7284 19.7833C8.00438 19.476 14.4863 12.1996 14.4863 7.2431C14.4862 3.24925 11.237 0 7.24314 0ZM7.24314 18.3485C5.06165 15.7572 1.30436 10.6448 1.30436 7.24318C1.30436 3.96846 3.96846 1.30436 7.24314 1.30436C10.5178 1.30436 13.1819 3.96846 13.1819 7.24314C13.1819 10.645 9.42517 15.7564 7.24314 18.3485Z" fill="#28B446"/>
<path d="M7.24329 3.59912C5.23386 3.59912 3.59912 5.2339 3.59912 7.24333C3.59912 9.25275 5.2339 10.8875 7.24329 10.8875C9.25267 10.8875 10.8874 9.25275 10.8874 7.24333C10.8874 5.2339 9.25267 3.59912 7.24329 3.59912ZM7.24329 9.58318C5.95307 9.58318 4.90348 8.53354 4.90348 7.24333C4.90348 5.95311 5.95311 4.90348 7.24329 4.90348C8.53346 4.90348 9.5831 5.95311 9.5831 7.24333C9.5831 8.53354 8.53346 9.58318 7.24329 9.58318Z" fill="#28B446"/>
</svg>
