<svg width="23" height="28" viewBox="0 0 23 28" fill="none" xmlns="http://www.w3.org/2000/svg">
<path d="M20.5625 3.5H15.75V2.625C15.75 1.17759 14.5724 0 13.125 0H9.625C8.17759 0 7 1.17759 7 2.625V3.5H2.1875C0.981313 3.5 0 4.48131 0 5.6875V8.75C0 9.23322 0.391781 9.625 0.875 9.625H1.35319L2.10913 25.4999C2.17591 26.9018 3.32762 28 4.73112 28H18.0189C19.4224 28 20.5742 26.9018 20.6409 25.4999L21.3968 9.625H21.875C22.3582 9.625 22.75 9.23322 22.75 8.75V5.6875C22.75 4.48131 21.7687 3.5 20.5625 3.5ZM8.75 2.625C8.75 2.14255 9.14255 1.75 9.625 1.75H13.125C13.6075 1.75 14 2.14255 14 2.625V3.5H8.75V2.625ZM1.75 5.6875C1.75 5.44627 1.94627 5.25 2.1875 5.25H20.5625C20.8037 5.25 21 5.44627 21 5.6875V7.875C20.7303 7.875 2.86743 7.875 1.75 7.875V5.6875ZM18.8928 25.4166C18.8706 25.8839 18.4867 26.25 18.0189 26.25H4.73112C4.26327 26.25 3.87937 25.8839 3.85716 25.4166L3.10516 9.625H19.6448L18.8928 25.4166Z" fill="white"/>
<path d="M11.375 24.5C11.8582 24.5 12.25 24.1082 12.25 23.625V12.25C12.25 11.7668 11.8582 11.375 11.375 11.375C10.8918 11.375 10.5 11.7668 10.5 12.25V23.625C10.5 24.1082 10.8917 24.5 11.375 24.5Z" fill="white"/>
<path d="M15.75 24.5C16.2332 24.5 16.625 24.1082 16.625 23.625V12.25C16.625 11.7668 16.2332 11.375 15.75 11.375C15.2668 11.375 14.875 11.7668 14.875 12.25V23.625C14.875 24.1082 15.2667 24.5 15.75 24.5Z" fill="white"/>
<path d="M7 24.5C7.48322 24.5 7.875 24.1082 7.875 23.625V12.25C7.875 11.7668 7.48322 11.375 7 11.375C6.51678 11.375 6.125 11.7668 6.125 12.25V23.625C6.125 24.1082 6.51673 24.5 7 24.5Z" fill="white"/>
</svg>
